<svg xmlns="http://www.w3.org/2000/svg" version="1.1" viewBox="-5.0 -10.0 110.0 135.0">
    <g>
        <path
            d="m95.312 56.535h-42.727l-2.6367-2.6367v-49.211c0-0.86328-0.69922-1.5625-1.5625-1.5625s-1.5625 0.69922-1.5625 1.5625v49.859c0 0.41406 0.16406 0.8125 0.45703 1.1055l3.5508 3.5508c0.29297 0.29297 0.69141 0.45703 1.1055 0.45703h43.375c0.86328 0 1.5625-0.69922 1.5625-1.5625 0-0.86328-0.69922-1.5625-1.5625-1.5625z" />
        <path
            d="m4.6875 59.66h23.953c0.41406 0 0.8125-0.16406 1.1055-0.45703l3.5508-3.5508c0.29297-0.29297 0.45703-0.69141 0.45703-1.1055l0.003906-49.859c0-0.86328-0.69922-1.5625-1.5625-1.5625-0.86328 0-1.5625 0.69922-1.5625 1.5625v49.211l-2.6367 2.6367h-23.309c-0.86328 0-1.5625 0.69922-1.5625 1.5625 0 0.86328 0.69922 1.5625 1.5625 1.5625z" />
        <path
            d="m30.633 78.477v16.836c0 0.86328 0.69922 1.5625 1.5625 1.5625 0.86328 0 1.5625-0.69922 1.5625-1.5625v-17.484c0-0.41406-0.16406-0.8125-0.45703-1.1055l-3.5508-3.5508c-0.29297-0.29297-0.69141-0.45703-1.1055-0.45703h-23.957c-0.86328 0-1.5625 0.69922-1.5625 1.5625 0 0.86328 0.69922 1.5625 1.5625 1.5625h23.309z" />
        <path
            d="m95.312 72.715h-43.375c-0.41406 0-0.8125 0.16406-1.1055 0.45703l-3.5508 3.5508c-0.29297 0.29297-0.45703 0.69141-0.45703 1.1055v17.484c0 0.86328 0.69922 1.5625 1.5625 1.5625s1.5625-0.69922 1.5625-1.5625v-16.836l2.6367-2.6367h42.727c0.86328 0 1.5625-0.69922 1.5625-1.5625 0-0.86328-0.69922-1.5625-1.5625-1.5625z" />
        <path
            d="m4.6875 25.23h18.289c0.86328 0 1.5625-0.69922 1.5625-1.5625v-14.469c0-0.86328-0.69922-1.5625-1.5625-1.5625h-18.289c-0.86328 0-1.5625 0.69922-1.5625 1.5625v14.469c0 0.86328 0.69922 1.5625 1.5625 1.5625zm1.5625-14.469h15.164v11.344h-15.164z" />
        <path
            d="m4.6875 47.598h18.289c0.86328 0 1.5625-0.69922 1.5625-1.5625v-14.469c0-0.86328-0.69922-1.5625-1.5625-1.5625h-18.289c-0.86328 0-1.5625 0.69922-1.5625 1.5625v14.469c0 0.86328 0.69922 1.5625 1.5625 1.5625zm1.5625-14.469h15.164v11.344h-15.164z" />
        <path
            d="m95.312 82.293h-14.469c-0.86328 0-1.5625 0.69922-1.5625 1.5625v11.457c0 0.86328 0.69922 1.5625 1.5625 1.5625h14.469c0.86328 0 1.5625-0.69922 1.5625-1.5625v-11.457c0-0.86328-0.69922-1.5625-1.5625-1.5625zm-1.5625 11.457h-11.344v-8.332h11.344z" />
        <path
            d="m72.945 82.293h-14.469c-0.86328 0-1.5625 0.69922-1.5625 1.5625v11.457c0 0.86328 0.69922 1.5625 1.5625 1.5625h14.469c0.86328 0 1.5625-0.69922 1.5625-1.5625v-11.457c0-0.86328-0.69922-1.5625-1.5625-1.5625zm-1.5625 11.457h-11.344v-8.332h11.344z" />
        <path
            d="m85.875 21.602c0-5.3281-4.332-9.6602-9.6602-9.6602s-9.6602 4.332-9.6602 9.6602c0 5.3281 4.3359 9.6602 9.6602 9.6602 5.3281 0 9.6602-4.3359 9.6602-9.6602zm-16.195 0c0-3.6016 2.9297-6.5352 6.5352-6.5352 3.6055 0 6.5352 2.9297 6.5352 6.5352 0 3.6055-2.9297 6.5352-6.5352 6.5352-3.6055 0-6.5352-2.9297-6.5352-6.5352z" />
        <path
            d="m76.219 50.461c0.42969 0 0.84375-0.17969 1.1367-0.49219 0.70703-0.75 17.34-18.523 17.34-28.371 0-10.188-8.2891-18.477-18.477-18.477s-18.477 8.2891-18.477 18.477c0 9.8477 16.633 27.617 17.34 28.371 0.29688 0.3125 0.70703 0.49219 1.1367 0.49219zm0-44.211c8.4648 0 15.352 6.8867 15.352 15.352 0 6.6172-10.195 19.281-15.352 24.992-5.1562-5.7109-15.352-18.375-15.352-24.992 0-8.4648 6.8867-15.352 15.352-15.352z" />
    </g>
</svg>