<svg xmlns="http://www.w3.org/2000/svg" version="1.1" viewBox="-5.0 -10.0 110.0 135.0">
    <g>
        <path
            d="m50 6.25c-11.602 0-22.73 4.6094-30.938 12.812-8.2031 8.207-12.812 19.336-12.812 30.938s4.6094 22.73 12.812 30.938c8.207 8.2031 19.336 12.812 30.938 12.812s22.73-4.6094 30.938-12.812c8.2031-8.207 12.812-19.336 12.812-30.938-0.011719-11.598-4.625-22.719-12.828-30.922s-19.324-12.816-30.922-12.828zm0 76.562c-8.6992-0.007812-17.039-3.4688-23.191-9.6211s-9.6133-14.492-9.6211-23.191c0-0.86328 0.69922-1.5625 1.5625-1.5625s1.5625 0.69922 1.5625 1.5625c0.007812 7.8711 3.1367 15.418 8.7031 20.984s13.113 8.6953 20.984 8.7031c0.86328 0 1.5625 0.69922 1.5625 1.5625s-0.69922 1.5625-1.5625 1.5625zm0-10.938c-5.8008-0.007812-11.359-2.3125-15.461-6.4141-4.1016-4.1016-6.4062-9.6602-6.4141-15.461 0-0.86328 0.69922-1.5625 1.5625-1.5625s1.5625 0.69922 1.5625 1.5625c0.003906 4.9727 1.9805 9.7383 5.4961 13.254s8.2812 5.4922 13.254 5.4961c0.86328 0 1.5625 0.69922 1.5625 1.5625s-0.69922 1.5625-1.5625 1.5625zm0-10.938c-4.4219 0-8.4102-2.6641-10.105-6.75-1.6914-4.0898-0.75781-8.793 2.3711-11.922s7.832-4.0625 11.922-2.3711c4.0859 1.6953 6.75 5.6836 6.75 10.105-0.007812 6.0391-4.8984 10.93-10.938 10.938z" />
        <path
            d="m57.812 50c0 4.3164-3.4961 7.8125-7.8125 7.8125s-7.8125-3.4961-7.8125-7.8125 3.4961-7.8125 7.8125-7.8125 7.8125 3.4961 7.8125 7.8125" />
    </g>
</svg>