<svg xmlns="http://www.w3.org/2000/svg" version="1.1" viewBox="-5.0 -10.0 110.0 135.0">
    <path
        d="m50 15.266c-5.168 0-9.8477 2.0938-13.234 5.4883-3.3828 3.3867-5.4805 8.0625-5.4805 13.227 0 5.168 2.0938 9.8477 5.4805 13.234 3.3867 3.3867 8.0664 5.4805 13.234 5.4805 5.1211 0 9.7656-2.0625 13.145-5.3984l0.089844-0.082031c3.3867-3.3867 5.4805-8.0664 5.4805-13.234 0-5.1641-2.0977-9.8398-5.4883-13.234-3.3867-3.3828-8.0625-5.4805-13.227-5.4805zm7.1758 68.184c1.2461 0.375 2.3516 0.84766 3.2695 1.3906 2.0195 1.1953 3.2148 2.7891 3.2148 4.6094 0 2.1602-1.6992 4.0078-4.4453 5.2461-2.3867 1.0781-5.6484 1.7422-9.2148 1.7422s-6.832-0.66406-9.2148-1.7422c-2.7461-1.2383-4.4453-3.0859-4.4453-5.2461 0-1.8203 1.1992-3.4141 3.2148-4.6094 0.91797-0.54297 2.0234-1.0156 3.2695-1.3906l1.6211 2.6562c-1.3281 0.33203-2.4766 0.78125-3.3672 1.3125-1.0938 0.64844-1.7383 1.3594-1.7383 2.0352 0 0.87109 1.0273 1.7734 2.6797 2.5156 2.0117 0.91016 4.8359 1.4727 7.9844 1.4727 3.1484 0 5.9727-0.5625 7.9844-1.4727 1.6523-0.74219 2.6797-1.6445 2.6797-2.5156 0-0.67578-0.65234-1.3867-1.7383-2.0352-0.89453-0.53125-2.043-0.97656-3.3711-1.3125l1.6211-2.6562zm-33.148-33.625c-1.4336-2.3477-2.5625-4.9023-3.3164-7.6094-0.73828-2.6289-1.1328-5.3906-1.1328-8.2383 0-8.3945 3.4062-16.004 8.918-21.512 5.5039-5.5078 13.109-8.918 21.512-8.918 8.3984 0 16.012 3.4062 21.516 8.9102l0.082031 0.089844c5.457 5.5 8.832 13.07 8.832 21.426 0 2.8438-0.39453 5.6094-1.1328 8.2383-0.75781 2.707-1.8828 5.2617-3.3164 7.6094l-24.699 40.406c-0.42969 0.70313-1.3516 0.92578-2.0547 0.49609-0.21484-0.13281-0.39062-0.3125-0.51172-0.51562l-24.688-40.387z" />
</svg>