<svg xmlns="http://www.w3.org/2000/svg" xmlns:xlink="http://www.w3.org/1999/xlink" version="1.1"
    viewBox="328 722 64 80" x="0px" y="0px" width="32" height="40" stroke="white">
    <g>
        <g style="" fill="rgb(0,0,0)" fill-opacity="1.0" stroke-linejoin=" miter">
            <path
                d="M359.99893,731.20026L359.99893,731.20123C353.84128,731.20026,348.84946,736.1921,348.84946,742.3497L348.84952,754.6551C348.84952,760.8127,353.84134,765.8045,359.999,765.8045C366.15677,765.8045,371.14847,760.8127,371.14847,754.6551L371.14847,754.5822L371.14847,754.5832L365.3901,754.58136C365.22653,754.58136,365.0698,754.5163,364.9541,754.4005C364.83856,754.28485,364.77362,754.128,364.77374,753.9645L364.7747,752.80457C364.775,752.46497,365.04996,752.18976,365.38928,752.18976L365.39108,752.19073L371.14847,752.1889L371.14847,752.1899L371.14847,749.3628L365.3901,749.36096C365.22653,749.36096,365.0698,749.2959,364.9541,749.1801C364.83856,749.06445,364.77362,748.9076,364.77374,748.7441L364.7747,747.58417C364.775,747.24457,365.04996,746.96936,365.38928,746.96936L365.39108,746.97034L371.14847,746.9695L371.14847,744.2482L365.3901,744.2464C365.22653,744.2464,365.0698,744.18134,364.9541,744.06555C364.83856,743.9499,364.77362,743.793,364.77374,743.6295L364.7747,742.4696C364.775,742.13,365.04996,741.8548,365.38928,741.8548L365.39108,741.8558L371.13763,741.8549C370.87823,735.9264,365.99048,731.20026,359.99893,731.20026L359.99893,731.20123 Z M345.24582,753.3675L345.24582,753.36847C345.08243,753.3675,344.92572,753.4324,344.81015,753.54785C344.69446,753.66345,344.62946,753.82025,344.62946,753.9838L344.62946,754.67444L344.62946,754.6754L344.62952,754.6764C344.6405,763.1544,351.51743,770.0246,359.99902,770.0246C368.4806,770.0246,375.3575,763.15436,375.36847,754.67535L375.3685,754.67633L375.3685,753.9848C375.3685,753.64465,375.0929,753.3688,374.75272,753.36847L373.5927,753.3675L373.59225,753.36847L373.58862,753.36945C373.42654,753.36847,373.2713,753.4332,373.1566,753.54785C373.0409,753.66345,372.9759,753.82025,372.9759,753.9838L372.9759,754.67444L372.9759,754.6754L372.981,754.6764C372.97003,761.8358,367.162,767.63715,359.99902,767.63715C352.8362,767.63715,347.0283,761.83624,347.017,754.676L347.02048,754.677L347.02206,754.67633L347.02206,753.9848C347.02206,753.64465,346.74646,753.3688,346.40628,753.36847L345.24628,753.3675L345.24582,753.36847 Z M359.419,771.38354L359.419,771.3845C359.2556,771.38354,359.0989,771.4484,358.98334,771.5639C358.86765,771.6795,358.80264,771.8363,358.80264,771.9999L358.80264,774.3904L352.39798,774.38855L352.39774,774.3895L352.3941,774.3905C352.23193,774.3895,352.07657,774.4544,351.96182,774.56915C351.84616,774.6848,351.78125,774.8418,351.78134,775.0054L351.782,776.17175C351.7822,776.512,352.058,776.7877,352.3983,776.78784L367.5986,776.7922L367.59882,776.79315C367.939,776.7922,368.21487,776.5166,368.21524,776.1764L368.21652,775.01C368.2167,774.84644,368.1519,774.68945,368.0363,774.5737C367.9207,774.458,367.76382,774.39294,367.60025,774.3929L361.19525,774.39105L361.19525,772.00085C361.19525,771.6607,360.91965,771.3848,360.57947,771.3845L359.41946,771.38354L359.419,771.3845 Z" />
        </g>
    </g>
    <text x="328" y="801" fill="#000000" font-size="5px" font-weight="bold"
        font-family="'Helvetica Neue', Helvetica, Arial-Unicode, Arial, Sans-serif">Created by Feri
        Saputra</text>
    <text x="328" y="806" fill="#000000" font-size="5px" font-weight="bold"
        font-family="'Helvetica Neue', Helvetica, Arial-Unicode, Arial, Sans-serif">from the Noun
        Project</text>
</svg>