<svg xmlns="http://www.w3.org/2000/svg" version="1.1" viewBox="-5.0 -10.0 110.0 135.0">
    <g>
        <path
            d="m85.301 60.914c-2.2266-12.645-15.492-14.809-18.195-15.121 0.074219-1.4297 0.46875-1.7305 0.44922-1.7305 0 0 0.007812-0.003906 0.011718-0.007812 0.042969-0.015626 0.082032-0.039063 0.12109-0.066407 0.015625-0.011719 0.03125-0.015625 0.042969-0.027343 0.003906 0 0.003906-0.003907 0.003906-0.003907 0.14062-0.12109 13.785-12.184 7.7539-23.719-3.2617-6.2383-7.8398-6.7734-12.27-7.2891-3.1914-0.37109-6.4922-0.75781-9.3555-3.3203-0.19922-0.17969-0.50781-0.16797-0.69141 0.023438-0.03125 0.035156-3.0938 3.2773-1.4258 7.1133-1.3359 0.85938-5.6211 4.1094-6.7227 11.066-0.78516 4.9648 0.10937 9.1836 2.4531 11.578 0.87109 0.89062 1.9336 1.5039 3.1523 1.8359 0.34766 0.6875 1.5117 3.2344 0.62891 5.043-1.2812 0.22266-6.7891 1.6172-17.156 9.9375-0.75-2.2734-2.8633-10.164 1.5586-16.191 0.11719-0.15625 0.12891-0.36719 0.035156-0.53906-0.011718-0.023438-0.082031-0.14453-0.20703-0.32031 0.24609-0.21484 0.78516-0.58594 1.8945-1l0.13281-0.050781c1.332-0.49609 3.75-1.4023 3.6914-3.418 0.79688-0.52344 1.418-1.2812 1.7188-2.1602 0.35938-1.0508 0.19531-2.1328-0.43359-3.0195 0.25391-0.67969 0.37109-1.707-0.023438-2.7695-0.30469-0.82031-1.0391-1.9453-2.8047-2.6484-3.3203-1.3203-7.418 0.0625-8.8711 2.1836l-15.336-3.8164c-0.25781-0.0625-0.51953 0.085938-0.59766 0.33594l-0.59375 1.9102c-0.074219 0.24609 0.046875 0.50781 0.28125 0.60938l13.781 5.8438c-0.49219 1.1172-0.47266 2.7734-0.41406 3.6875-0.10156 0.019531-0.19531 0.058594-0.26953 0.13672-0.11328 0.12109-11.469 12.414-8.9062 29.238 0.007813 0.058594 0.027344 0.11328 0.054688 0.16406 0.20703 0.38281 5.1445 9.1445 20.355 9.1445 0.22266 0 0.45312-0.003906 0.67969-0.007813-0.36719 4.1719-0.30859 9.6797 0.92188 16.555 0.042969 0.24219 0.25391 0.41016 0.49219 0.41016 0.027343 0 0.058593-0.003906 0.089843-0.007812 0.27344-0.050782 0.45312-0.30859 0.40234-0.57812-2.9688-16.582 1.0547-25.395 1.0977-25.48 0.11719-0.25 0.011719-0.54688-0.23828-0.66406-0.25-0.11328-0.54688-0.011719-0.66406 0.23828-0.097657 0.20703-1.4102 3.0664-2.0078 8.5273-14.457 0.27734-19.699-7.6992-20.203-8.5391-2.2539-15.109 7.0352-26.449 8.4766-28.102 3.6797 0.8125 5.5547 2.6953 6.2656 3.5938 0.011718 0.015624 0.023437 0.03125 0.035156 0.046874 0.050781 0.066407 0.11328 0.14063 0.15234 0.19531-4.7539 6.8125-2.043 15.359-1.3828 17.176-0.53906 0.44141-1.0898 0.89844-1.6562 1.3789-0.21094 0.17969-0.23828 0.49219-0.058594 0.70313 0.097657 0.11719 0.23828 0.17578 0.38281 0.17578 0.11328 0 0.23047-0.039063 0.32422-0.11719 0.65625-0.55469 1.2891-1.0781 1.9102-1.5859 0.019531-0.015625 0.042969-0.03125 0.0625-0.050782 10.473-8.4961 16.07-9.918 17.188-10.129 0.66016 0.60547 2.9844 2.4727 6.5352 2.4727h0.10938c3.793-0.039062 7.8398-2.4805 8.6484-2.9922 1.5938 0.14844 15.395 1.793 17.602 14.332 2.3008 13.074-5.0938 23.621-8.2539 28.125l-0.35156 0.50391c-0.15625 0.22656-0.10156 0.53906 0.125 0.69531 0.085938 0.0625 0.1875 0.089844 0.28516 0.089844 0.15625 0 0.3125-0.074219 0.41016-0.21484l0.35156-0.5c1.2109-1.7227 3.0234-4.3125 4.6992-7.5859 0.0625 2.1094 0.050781 5.4648-0.53516 7.6758-0.070313 0.26562 0.089843 0.53906 0.35547 0.60938 0.042968 0.011718 0.085937 0.015625 0.12891 0.015625 0.22266 0 0.42188-0.14844 0.48438-0.37109 0.88281-3.3359 0.54688-8.8867 0.48047-9.8242 2.3711-5.2305 4.125-11.891 2.8086-19.391zm-46-35.879c1.1406 0.45312 1.8945 1.1484 2.2344 2.0664 0.32031 0.85938 0.19531 1.7734-0.054687 2.2578-0.09375 0.17969-0.53125 0.42188-1.2617 0.52344-1.1367 0.15625-2.6445-0.070312-3.3359-0.80859-0.66797-0.71094-0.71875-0.90234-0.75-1.0391-0.058593-0.23438-0.13281-0.44531-0.5-0.83984-0.17578-0.1875-0.40234-0.28906-0.64844-0.28906-0.28125 0-0.51562 0.12891-0.67969 0.25l-2.4141-0.60156c1.3984-1.5977 4.7344-2.5898 7.4141-1.5234zm-10.359 10.008c-0.074218-0.90234-0.097656-2.5547 0.32422-3.4766l3.4766 1.4727c0.39844 0.5625 2.0117 2.5 5.1562 2.5 0.53906 0 1.1289-0.058593 1.7617-0.19141 0.15234-0.03125 0.30078-0.078125 0.44531-0.125-0.35547 0.90625-1.6641 1.4844-2.9375 1.957l-0.13672 0.050781c-1.1523 0.43359-1.8008 0.84375-2.1719 1.1602-0.94922-1.0391-2.793-2.5508-5.9219-3.3516zm29.113 13.703h-0.09375c-2.9961 0-5.0586-1.5156-5.7539-2.1133 0.8125-1.7852 0.13672-3.9648-0.37109-5.1641 0.35156 0.039062 0.70703 0.070312 1.0742 0.070312 0.48047 0 0.98047-0.035156 1.4922-0.10547 0.27344-0.039063 0.46484-0.28906 0.42969-0.5625-0.039062-0.27344-0.28906-0.46875-0.5625-0.42969-2.5586 0.35156-4.6055-0.23438-6.0742-1.7344-0.75-0.76562-1.3281-1.7812-1.7383-2.9727 9.2695-2.1367 1.1719-4.6445-0.67188-5.1562 0.027344-0.83984 0.09375-1.6992 0.23438-2.5938 1.1289-7.1289 5.9258-10.18 6.5391-10.543 0.46094-0.066406 3.1484-0.36328 5.3828 1.5391 2.3047 1.9648 3.3945 5.5703 3.2383 10.715-0.003907 0.16406 0.070312 0.31641 0.19922 0.41406s0.30078 0.125 0.45312 0.074219c0.027344-0.007813 2.5273-0.80469 3.7344 0.41406 0.95312 0.96094 0.93359 3.043-0.058594 6.0156-1.2773 3.8281 0.33594 6.1055 1.168 6.9688-0.28125 0.39453-0.55078 1.0977-0.58594 2.3789-0.9375 0.57812-4.6836 2.7461-8.0352 2.7812z" />
        <path
            d="m69.973 65.551c-0.0625 0.085938-6.4297 8.5273-8.8164 24.375-0.039062 0.27344 0.14844 0.52734 0.42188 0.56641 0.023437 0.003906 0.050781 0.007812 0.074219 0.007812 0.24219 0 0.45703-0.17969 0.49219-0.42578 2.3477-15.57 8.5586-23.836 8.6211-23.914 0.16797-0.21875 0.125-0.53125-0.09375-0.69922-0.21875-0.17188-0.53516-0.12891-0.69922 0.09375z" />
    </g>
</svg>