<svg xmlns="http://www.w3.org/2000/svg" version="1.1" viewBox="-5.0 -10.0 110.0 135.0">
 <path d="m92.844 88.406-23.156-23.125c8.0352-9.5625 10.539-22.609 6.6133-34.469-3.9219-11.855-13.715-20.832-25.867-23.715-12.152-2.8828-24.934 0.73828-33.766 9.5703s-12.453 21.613-9.5703 33.766c2.8828 12.152 11.859 21.945 23.715 25.867 11.859 3.9258 24.906 1.4219 34.469-6.6133l23.125 23.156c0.58594 0.58984 1.3867 0.92578 2.2188 0.92578s1.6328-0.33594 2.2188-0.92578c0.58984-0.58594 0.92578-1.3867 0.92578-2.2188s-0.33594-1.6328-0.92578-2.2188zm-80.344-46.219c0-7.875 3.1289-15.426 8.6953-20.992 5.5664-5.5664 13.117-8.6953 20.992-8.6953s15.426 3.1289 20.992 8.6953c5.5664 5.5664 8.6953 13.117 8.6953 20.992s-3.1289 15.426-8.6953 20.992c-5.5664 5.5664-13.117 8.6953-20.992 8.6953-7.8711-0.007812-15.418-3.1406-20.984-8.7031-5.5625-5.5664-8.6953-13.113-8.7031-20.984z"/>
</svg>